<svg version="1.1" xmlns="http://www.w3.org/2000/svg" viewBox="0 0 1627.2856757130476 1327.2778625488227" width="1627.2856757130476" height="1327.2778625488227" filter="invert(93%) hue-rotate(180deg)">
  <!-- svg-source:excalidraw -->
  
  <defs>
    <style class="style-fonts">
      @font-face {
        font-family: "Virgil";
        src: url("https://excalidraw.com/Virgil.woff2");
      }
      @font-face {
        font-family: "Cascadia";
        src: url("https://excalidraw.com/Cascadia.woff2");
      }
    </style>
    
  </defs>
  <rect x="0" y="0" width="1627.2856757130476" height="1327.2778625488227" fill="#ffffff"></rect><g stroke-linecap="round" transform="translate(10 441.4630025227816) rotate(0 801.3704325358074 437.90743001302053)"><path d="M32.12 -0.74 L1572.4 1.97 L1579.51 2.46 L1591 6.45 L1599.87 14.23 L1599.84 19.03 L1600.97 32.5 L1602.67 844.45 L1603.29 850.03 L1598.71 863.06 L1589.31 872.69 L1586.65 874.67 L1568.95 875.79 L31.44 875.8 L23.87 873.88 L12.67 872.03 L4.92 863.05 L3.21 857.94 L-1.81 842.39 L-0.37 30.85 L0.49 18.75 L6.47 7.04 L16.09 2.41 L32.74 -1.62" stroke="none" stroke-width="0" fill="#a5d8ff"></path><path d="M32 0 M32 0 C396.93 2.25, 761.6 1.57, 1570.74 0 M32 0 C410.89 -0.27, 790.06 -0.1, 1570.74 0 M1570.74 0 C1591.25 0.6, 1603.3 8.96, 1602.74 32 M1570.74 0 C1590.49 0.7, 1601 8.66, 1602.74 32 M1602.74 32 C1603.52 229.89, 1603.33 428.14, 1602.74 843.81 M1602.74 32 C1604.06 247.54, 1604.05 462.89, 1602.74 843.81 M1602.74 843.81 C1603.47 865.81, 1591.56 876.98, 1570.74 875.81 M1602.74 843.81 C1601.37 867.44, 1591.02 874.05, 1570.74 875.81 M1570.74 875.81 C1028.51 875.42, 486.87 874.36, 32 875.81 M1570.74 875.81 C1173.9 878.34, 777.38 878.21, 32 875.81 M32 875.81 C10.89 875.4, -0.61 866.1, 0 843.81 M32 875.81 C11.8 876.16, 0.32 863.99, 0 843.81 M0 843.81 C1.6 537.69, 1.14 233.69, 0 32 M0 843.81 C-2.81 535.21, -3.17 226.61, 0 32 M0 32 C1.37 11.33, 10.69 -0.48, 32 0 M0 32 C-2.07 12.71, 10.17 -1.97, 32 0" stroke="#1e1e1e" stroke-width="1" fill="none"></path></g><g transform="translate(15 446.4630025227816) rotate(0 59.795989990234375 45)"><text x="0" y="0" font-family="Virgil, Segoe UI Emoji" font-size="36px" fill="#1e1e1e" text-anchor="start" style="white-space: pre;" direction="ltr" dominant-baseline="text-before-edge"></text><text x="0" y="45" font-family="Virgil, Segoe UI Emoji" font-size="36px" fill="#1e1e1e" text-anchor="start" style="white-space: pre;" direction="ltr" dominant-baseline="text-before-edge">   VPC</text></g><g stroke-linecap="round" transform="translate(422.40743001302053 598.0555979410783) rotate(0 72.22221374511719 72.77778625488281)"><path d="M85.85 0.6 C95.91 1.3, 107.58 7.14, 115.79 13.53 C124 19.92, 130.33 29.61, 135.12 38.94 C139.91 48.28, 144.07 59.05, 144.53 69.55 C144.99 80.04, 142.13 92.38, 137.87 101.92 C133.61 111.45, 126.8 120.05, 118.97 126.76 C111.14 133.47, 100.77 139.34, 90.87 142.18 C80.96 145.01, 69.65 145.59, 59.55 143.75 C49.45 141.91, 38.73 137.24, 30.28 131.16 C21.83 125.07, 13.93 116.51, 8.85 107.25 C3.78 97.98, 0.28 86.04, -0.14 75.59 C-0.56 65.13, 2.16 54.12, 6.35 44.53 C10.53 34.93, 17.25 24.87, 24.97 18.01 C32.68 11.15, 42.26 6.23, 52.65 3.34 C63.04 0.46, 81.07 0.81, 87.31 0.73 C93.55 0.65, 90.32 1.35, 90.08 2.85 M100.31 5.16 C109.43 7.64, 117.97 15.42, 125.05 23.49 C132.13 31.57, 139.74 43.35, 142.79 53.62 C145.84 63.89, 145.58 74.61, 143.36 85.12 C141.14 95.62, 135.64 108.25, 129.48 116.64 C123.32 125.03, 115.41 130.51, 106.39 135.43 C97.38 140.36, 85.88 145.24, 75.39 146.18 C64.9 147.11, 52.85 145.11, 43.45 141.03 C34.05 136.96, 25.7 129.81, 19.02 121.71 C12.34 113.61, 6.27 102.73, 3.36 92.41 C0.46 82.1, -0.29 70.04, 1.57 59.84 C3.43 49.64, 8.3 39.9, 14.5 31.23 C20.7 22.57, 29.72 12.89, 38.77 7.84 C47.81 2.79, 58.45 1.46, 68.78 0.94 C79.1 0.41, 95.57 3.61, 100.72 4.69 C105.88 5.77, 99.99 6.07, 99.7 7.43" stroke="none" stroke-width="0" fill="#a5d8ff"></path><path d="M101.34 5.06 C110.78 8.09, 120.2 16.85, 127.02 25.04 C133.83 33.22, 139.63 43.97, 142.22 54.17 C144.82 64.37, 144.57 76.06, 142.6 86.24 C140.63 96.43, 136.33 106.67, 130.38 115.29 C124.44 123.9, 116.04 133.05, 106.92 137.94 C97.8 142.82, 86.2 144.37, 75.65 144.6 C65.1 144.83, 53.27 143.4, 43.6 139.32 C33.94 135.25, 24.64 128.05, 17.67 120.17 C10.71 112.28, 4.51 102.06, 1.82 91.99 C-0.86 81.92, -0.43 70.02, 1.56 59.76 C3.56 49.49, 7.68 39.09, 13.8 30.41 C19.92 21.73, 29.15 12.76, 38.27 7.67 C47.39 2.58, 56.27 -0.76, 68.51 -0.12 C80.75 0.51, 102.83 7.99, 111.72 11.47 C120.6 14.95, 122.47 19.79, 121.82 20.76 M78.66 -0.92 C88.48 -0.77, 100.41 5.18, 109.61 10.85 C118.81 16.52, 128.21 24.41, 133.86 33.12 C139.5 41.83, 142.49 52.61, 143.49 63.12 C144.49 73.62, 143.18 86.17, 139.87 96.16 C136.55 106.16, 130.66 115.59, 123.59 123.1 C116.52 130.61, 107.33 137.48, 97.44 141.23 C87.54 144.99, 74.66 146.92, 64.22 145.63 C53.79 144.34, 43.79 139.01, 34.82 133.49 C25.85 127.98, 16.32 121.42, 10.42 112.55 C4.51 103.69, 0.64 90.84, -0.6 80.33 C-1.84 69.81, -0.59 58.97, 2.99 49.44 C6.56 39.92, 13.55 30.52, 20.85 23.16 C28.15 15.81, 37.18 9.19, 46.78 5.3 C56.37 1.42, 72.83 0.65, 78.4 -0.14 C83.98 -0.92, 80.34 -0.67, 80.22 0.59" stroke="#1e1e1e" stroke-width="1" fill="none"></path></g><g transform="translate(467.884831793614 648.371718015389) rotate(0 26.675994873046875 22.5)"><text x="26.675994873046875" y="0" font-family="Virgil, Segoe UI Emoji" font-size="36px" fill="#1e1e1e" text-anchor="middle" style="white-space: pre;" direction="ltr" dominant-baseline="text-before-edge">RT</text></g><g stroke-linecap="round"><g transform="translate(566.8518575032549 674.7223154703752) rotate(0 464.07799549837046 -0.5230604041089464)"><path d="M-0.54 0.62 C153.72 0.5, 771.86 0.34, 926.54 0.3 M1.38 -0.1 C155.91 -0.09, 774.46 -1.39, 928.7 -1.66" stroke="#1e1e1e" stroke-width="1" fill="none"></path></g></g><mask></mask><g stroke-linecap="round"><g transform="translate(815.7409159342442 678.4259287516252) rotate(0 0.8266917698051657 29.04478332398412)"><path d="M-0.87 0.83 C-0.64 10.41, -0.15 47.23, 0.39 56.57 M0.87 0.22 C1.55 10.05, 2.33 48.22, 2.52 57.87" stroke="#1e1e1e" stroke-width="1" fill="none"></path></g></g><mask></mask><g stroke-linecap="round" transform="translate(687.222137451171 728.0555979410783) rotate(0 126.61124674479174 102.22218831380178)"><path d="M157.3 27.13 L234.16 88.59 L245.27 97.78 L245.9 105.46 L243.48 110.38 L230.26 120.14 L149.32 186.85 L133.01 196.34 L125.53 195.76 L109.42 189.42 L22.42 120.18 L9.26 107.77 L9.37 99.73 L12.51 94.81 L21.04 85.59 L101.73 21.55 L115.87 7.76 L127.27 7.32 L131.87 6.53 L142.61 14.83 L157.32 26.15" stroke="none" stroke-width="0" fill="#a5d8ff"></path><path d="M158.75 25.75 M158.75 25.75 C178.37 41.55, 196.9 54.98, 221.47 77.25 M158.75 25.75 C180.04 44.04, 203.2 61.95, 221.47 77.25 M221.47 77.25 C253.81 104.48, 252.9 102.32, 221.47 128.75 M221.47 77.25 C254.97 103.9, 252.02 104.01, 221.47 128.75 M221.47 128.75 C205.14 139.72, 191.06 152.43, 158.75 178.69 M221.47 128.75 C207.61 140.44, 195.89 151.1, 158.75 178.69 M158.75 178.69 C126.12 203.04, 126.93 203.75, 95.25 178.69 M158.75 178.69 C125.3 206.2, 129.11 203.36, 95.25 178.69 M95.25 178.69 C76.38 166.17, 61.3 151.92, 31.75 128.75 M95.25 178.69 C76.46 163.26, 56.43 149.72, 31.75 128.75 M31.75 128.75 C1.26 103.17, -1.72 103.11, 31.75 77.25 M31.75 128.75 C-1.09 102.39, -2.07 101.01, 31.75 77.25 M31.75 77.25 C51.9 62.61, 69.19 46.25, 95.25 25.75 M31.75 77.25 C47.78 64.3, 65.68 49.49, 95.25 25.75 M95.25 25.75 C125.45 -1.66, 125.55 1.15, 158.75 25.75 M95.25 25.75 C125.31 1.25, 127.27 2.15, 158.75 25.75" stroke="#1e1e1e" stroke-width="1" fill="none"></path></g><g transform="translate(758.0297902425123 785.1666920979787) rotate(0 55.99797058105469 45)"><text x="55.99797058105469" y="0" font-family="Virgil, Segoe UI Emoji" font-size="36px" fill="#1e1e1e" text-anchor="middle" style="white-space: pre;" direction="ltr" dominant-baseline="text-before-edge">egress</text><text x="55.99797058105469" y="45" font-family="Virgil, Segoe UI Emoji" font-size="36px" fill="#1e1e1e" text-anchor="middle" style="white-space: pre;" direction="ltr" dominant-baseline="text-before-edge">FW</text></g><g transform="translate(168.5186767578125 638.6111704508403) rotate(0 114.56996154785156 22.5)"><text x="0" y="0" font-family="Virgil, Segoe UI Emoji" font-size="36px" fill="#1e1e1e" text-anchor="start" style="white-space: pre;" direction="ltr" dominant-baseline="text-before-edge">0/0 via IGW</text></g><g stroke-linecap="round"><g transform="translate(490.2113907235371 314.70797382140336) rotate(0 -0.7218190860003233 139.92153109451374)"><path d="M-0.34 0.53 C-0.35 46.95, -1.01 232.92, -1.1 279.31" stroke="#1e1e1e" stroke-width="1.5" fill="none" stroke-dasharray="1.5 7"></path></g></g><mask></mask><g transform="translate(20.013811747234286 246.94452921549237) rotate(0 74.39397430419922 22.5)"><text x="0" y="0" font-family="Virgil, Segoe UI Emoji" font-size="36px" fill="#1e1e1e" text-anchor="start" style="white-space: pre;" direction="ltr" dominant-baseline="text-before-edge">Internet</text></g><g stroke-linecap="round"><g transform="translate(566.8518575032549 1009.5371754964162) rotate(0 249.81541689721234 -0.0829234695620471)"><path d="M-0.38 -0.86 C83.01 -0.79, 416.59 0.31, 500.01 0.43 M1.63 1.3 C84.9 1.01, 416.13 -1.43, 499.11 -1.47" stroke="#1e1e1e" stroke-width="1" fill="none"></path></g></g><mask></mask><g stroke-linecap="round" transform="translate(422.40743001302053 935.092646280922) rotate(0 72.22221374511719 72.77778625488281)"><path d="M61.35 0.99 C70.83 -1.57, 82.86 1.04, 92.76 3.92 C102.65 6.8, 112.91 11.41, 120.72 18.28 C128.52 25.14, 135.72 34.99, 139.58 45.1 C143.45 55.2, 144.57 68.12, 143.92 78.91 C143.27 89.69, 140.69 100.83, 135.7 109.8 C130.7 118.78, 122.75 127.08, 113.95 132.75 C105.14 138.41, 93.45 142.07, 82.86 143.8 C72.27 145.52, 60.27 146, 50.4 143.09 C40.53 140.17, 31.21 133.71, 23.62 126.32 C16.03 118.92, 8.61 108.53, 4.85 98.71 C1.09 88.89, 0.43 77.78, 1.07 67.39 C1.71 57, 3.57 45.54, 8.69 36.37 C13.81 27.2, 21.97 18.27, 31.8 12.35 C41.63 6.43, 60.79 2.6, 67.67 0.86 C74.55 -0.88, 73.14 0.76, 73.09 1.91 M67.38 -0.75 C77.05 -2.68, 88.62 1.94, 98.26 5.71 C107.9 9.48, 118.1 14.29, 125.23 21.88 C132.36 29.46, 137.71 40.94, 141.03 51.22 C144.35 61.49, 146.82 73.19, 145.18 83.54 C143.53 93.88, 137.43 104.62, 131.17 113.29 C124.92 121.96, 116.44 130.03, 107.66 135.55 C98.87 141.07, 88.95 145.41, 78.48 146.41 C68.02 147.41, 54.5 145.65, 44.87 141.54 C35.25 137.43, 27.47 129.75, 20.73 121.76 C14 113.77, 7.84 103.6, 4.47 93.61 C1.1 83.61, -0.87 72.09, 0.49 61.78 C1.84 51.48, 6.61 40.27, 12.6 31.78 C18.6 23.29, 27.55 15.9, 36.47 10.84 C45.39 5.78, 60.91 2.82, 66.11 1.42 C71.3 0.01, 67.63 1.5, 67.64 2.4" stroke="none" stroke-width="0" fill="#a5d8ff"></path><path d="M79.82 -0.51 C89.71 -0.68, 100.68 5.12, 109.46 10.67 C118.24 16.23, 126.7 24.06, 132.5 32.83 C138.31 41.6, 143.03 52.89, 144.3 63.31 C145.57 73.73, 143.5 85.18, 140.09 95.33 C136.69 105.48, 131.27 116.66, 123.89 124.21 C116.5 131.77, 105.8 137.21, 95.79 140.66 C85.78 144.1, 74.07 145.76, 63.82 144.87 C53.58 143.97, 43.1 140.8, 34.32 135.27 C25.54 129.74, 16.87 120.74, 11.14 111.69 C5.42 102.65, 1.19 91.41, -0.02 80.98 C-1.23 70.55, 0.49 58.94, 3.89 49.14 C7.28 39.34, 13.01 29.72, 20.34 22.18 C27.67 14.63, 36.5 7.21, 47.84 3.86 C59.19 0.51, 80.59 1.9, 88.44 2.07 C96.29 2.23, 95.23 3.84, 94.96 4.85 M41.92 8.15 C50.44 3.09, 62.01 1.16, 72.23 0.99 C82.44 0.81, 93.56 2.78, 103.19 7.1 C112.82 11.42, 123.61 18.53, 130.02 26.9 C136.43 35.27, 139.77 47, 141.63 57.33 C143.5 67.66, 143.35 78.52, 141.19 88.86 C139.02 99.2, 135.12 110.92, 128.65 119.38 C122.17 127.84, 112.04 135.01, 102.34 139.62 C92.63 144.23, 80.89 147.52, 70.4 147.04 C59.9 146.57, 48.44 141.68, 39.36 136.78 C30.29 131.88, 22.28 125.94, 15.96 117.65 C9.64 109.35, 3.66 97.5, 1.44 87 C-0.79 76.51, 0.37 64.85, 2.62 54.68 C4.87 44.52, 8.63 33.93, 14.95 26.04 C21.27 18.15, 36.12 10.19, 40.53 7.36 C44.94 4.53, 40.82 7.99, 41.43 9.08" stroke="#1e1e1e" stroke-width="1" fill="none"></path></g><g transform="translate(467.884831793614 985.4087663552327) rotate(0 26.675994873046875 22.5)"><text x="26.675994873046875" y="0" font-family="Virgil, Segoe UI Emoji" font-size="36px" fill="#1e1e1e" text-anchor="middle" style="white-space: pre;" direction="ltr" dominant-baseline="text-before-edge">RT</text></g><g transform="translate(67.03715006510447 984.5370992024691) rotate(0 165.887939453125 22.5)"><text x="0" y="0" font-family="Virgil, Segoe UI Emoji" font-size="36px" fill="#1e1e1e" text-anchor="start" style="white-space: pre;" direction="ltr" dominant-baseline="text-before-edge">0/0 via egress FW</text></g><g stroke-linecap="round" transform="translate(707.7411905924478 1050.4258778889962) rotate(0 106.1666259765625 115)"><path d="M133.75 29 M133.75 29 C147.37 43.86, 160.78 59.12, 185.58 87 M133.75 29 C149.77 46.71, 164.53 64.5, 185.58 87 M185.58 87 C212.89 114.29, 210.96 116.61, 185.58 145 M185.58 87 C210.59 113.99, 211.05 116.05, 185.58 145 M185.58 145 C171.18 160.59, 152.97 180.72, 133.75 201 M185.58 145 C173.03 156.45, 162.94 169.65, 133.75 201 M133.75 201 C106.49 231.16, 105.81 231.99, 80.25 201 M133.75 201 C105.95 228.23, 108.2 230.35, 80.25 201 M80.25 201 C63.9 183.21, 48.94 167.32, 26.75 145 M80.25 201 C62.15 182.77, 44.65 163.4, 26.75 145 M26.75 145 C-0.61 116.96, 0.98 116.3, 26.75 87 M26.75 145 C0.32 114.84, 1.75 115, 26.75 87 M26.75 87 C36.78 77.6, 49.9 65.68, 80.25 29 M26.75 87 C46.31 64.24, 68.37 43.17, 80.25 29 M80.25 29 C107.03 -0.48, 105.2 1.78, 133.75 29 M80.25 29 C106.51 -1.97, 106.43 1.08, 133.75 29" stroke="#1e1e1e" stroke-width="1" fill="none"></path></g><g transform="translate(787.2805124918618 1147.9258778889962) rotate(0 26.543991088867188 17.5)"><text x="26.543991088867188" y="0" font-family="Virgil, Segoe UI Emoji" font-size="28px" fill="#1e1e1e" text-anchor="middle" style="white-space: pre;" direction="ltr" dominant-baseline="text-before-edge">KVM</text></g><g stroke-linecap="round"><g transform="translate(815.1482137044268 1010.4259592692033) rotate(0 0.3383562060125769 24.319714618704893)"><path d="M-0.6 0.02 C-0.45 8.19, 0.27 40.24, 0.58 48.38 M1.28 -1.02 C1.29 7.37, -0.37 41.12, -0.45 49.66" stroke="#1e1e1e" stroke-width="1" fill="none"></path></g></g><mask></mask><g stroke-linecap="round" transform="translate(883.8548462277358 1113.2264598443508) rotate(0 55.9259033203125 51.111094156901345)"><path d="M25.56 0 L92.29 0.4 L97.48 1.6 L101.87 3.59 L105.46 6.39 L108.26 9.98 L110.25 14.37 L111.85 25.56 L111.45 82.66 L110.25 87.85 L108.26 92.24 L105.46 95.83 L101.87 98.63 L97.48 100.62 L86.3 102.22 L19.57 101.82 L14.37 100.62 L9.98 98.63 L6.39 95.83 L3.59 92.24 L1.6 87.85 L0.4 82.66 L0.4 19.57 L1.6 14.37 L3.59 9.98 L6.39 6.39 L9.98 3.59 L14.37 1.6 L25.56 0" stroke="none" stroke-width="0" fill="#d0bfff"></path><path d="M25.56 0 M25.56 0 C48.35 0, 71.14 0, 86.3 0 M25.56 0 C39.33 0, 53.11 0, 86.3 0 M86.3 0 C103.33 0, 111.85 8.52, 111.85 25.56 M86.3 0 C103.33 0, 111.85 8.52, 111.85 25.56 M111.85 25.56 C111.85 39.24, 111.85 52.93, 111.85 76.67 M111.85 25.56 C111.85 36.66, 111.85 47.76, 111.85 76.67 M111.85 76.67 C111.85 93.7, 103.33 102.22, 86.3 102.22 M111.85 76.67 C111.85 93.7, 103.33 102.22, 86.3 102.22 M86.3 102.22 C64.38 102.22, 42.46 102.22, 25.56 102.22 M86.3 102.22 C64.93 102.22, 43.57 102.22, 25.56 102.22 M25.56 102.22 C8.52 102.22, 0 93.7, 0 76.67 M25.56 102.22 C8.52 102.22, 0 93.7, 0 76.67 M0 76.67 C0 66.1, 0 55.53, 0 25.56 M0 76.67 C0 65.25, 0 53.84, 0 25.56 M0 25.56 C0 8.52, 8.52 0, 25.56 0 M0 25.56 C0 8.52, 8.52 0, 25.56 0" stroke="#6741d9" stroke-width="4" fill="none"></path></g><g transform="translate(907.3847610836929 1146.8375540012512) rotate(0 32.39598846435547 17.5)"><text x="32.39598846435547" y="0" font-family="Virgil, Segoe UI Emoji" font-size="28px" fill="#1e1e1e" text-anchor="middle" style="white-space: pre;" direction="ltr" dominant-baseline="text-before-edge">Node</text></g><g stroke-linecap="round"><g transform="translate(1167.7409159342442 678.4259287516252) rotate(0 0.18652460264661386 28.416244740290495)"><path d="M-1.06 0.3 C-0.73 9.77, 0.91 48.09, 1.44 57.42 M0.58 -0.59 C0.79 8.45, 0.28 45.87, 0.47 55.5" stroke="#1e1e1e" stroke-width="1" fill="none"></path></g></g><mask></mask><g stroke-linecap="round" transform="translate(1039.222137451171 728.0555979410783) rotate(0 126.61124674479174 100)"><path d="M156.98 25.75 L235.91 88.26 L244.85 94.89 L245.38 103.12 L241.01 109.81 L233.8 118.72 L146.42 183.01 L132.51 192.49 L123.38 191.96 L110.35 187.01 L21.75 117.6 L10.63 105.96 L6.5 97.2 L10.92 92.42 L19.82 84.88 L99.32 19.85 L115.74 9.39 L127.74 4.69 L131.82 5.76 L158.17 25.34" stroke="none" stroke-width="0" fill="#a5d8ff"></path><path d="M158.75 25.25 M158.75 25.25 C179.98 42.47, 203.51 61.27, 221.47 75.75 M158.75 25.25 C174.75 38.58, 191.62 50.44, 221.47 75.75 M221.47 75.75 C251.84 101.61, 251.71 99.26, 221.47 126.25 M221.47 75.75 C251.94 101.05, 253.52 103.06, 221.47 126.25 M221.47 126.25 C206.16 138.31, 190.26 147.25, 158.75 174.75 M221.47 126.25 C203.33 140.16, 184.6 154.41, 158.75 174.75 M158.75 174.75 C125.81 201.99, 126.08 198.46, 95.25 174.75 M158.75 174.75 C128.2 200.35, 126.73 198.38, 95.25 174.75 M95.25 174.75 C73.15 156.09, 53.16 139.99, 31.75 126.25 M95.25 174.75 C72.49 157.11, 49 140.18, 31.75 126.25 M31.75 126.25 C0.98 101.3, 0.27 99.99, 31.75 75.75 M31.75 126.25 C1.75 100, -2.24 101.52, 31.75 75.75 M31.75 75.75 C47.18 66.01, 60.89 53.39, 95.25 25.25 M31.75 75.75 C49.49 63.38, 65.42 49.61, 95.25 25.25 M95.25 25.25 C125.2 1.78, 126.57 -1.72, 158.75 25.25 M95.25 25.25 C126.43 1.08, 125.98 1.86, 158.75 25.25" stroke="#1e1e1e" stroke-width="1" fill="none"></path></g><g transform="translate(1120.8837788899732 783.0555979410783) rotate(0 45.14398193359375 45)"><text x="45.14398193359375" y="0" font-family="Virgil, Segoe UI Emoji" font-size="36px" fill="#1e1e1e" text-anchor="middle" style="white-space: pre;" direction="ltr" dominant-baseline="text-before-edge">Web </text><text x="45.14398193359375" y="45" font-family="Virgil, Segoe UI Emoji" font-size="36px" fill="#1e1e1e" text-anchor="middle" style="white-space: pre;" direction="ltr" dominant-baseline="text-before-edge">proxy</text></g><g stroke-linecap="round"><g transform="translate(901.4957762193685 1111.5968211724776) rotate(0 2.2737367544323206e-13 -429.69444274902344)"><path d="M0 0 C0 -143.23, 0 -716.16, 0 -859.39 M0 0 C0 -143.23, 0 -716.16, 0 -859.39" stroke="#6741d9" stroke-width="4" fill="none"></path></g><g transform="translate(901.4957762193685 1111.5968211724776) rotate(0 2.2737367544323206e-13 -429.69444274902344)"><path d="M0 -859.39 L6.34 -845.79 L-6.34 -845.79 L0 -859.39" stroke="none" stroke-width="0" fill="#6741d9" fill-rule="evenodd"></path><path d="M0 -859.39 C1.52 -856.13, 3.04 -852.87, 6.34 -845.79 M0 -859.39 C2.14 -854.79, 4.29 -850.2, 6.34 -845.79 M6.34 -845.79 C2.17 -845.79, -2 -845.79, -6.34 -845.79 M6.34 -845.79 C3.01 -845.79, -0.33 -845.79, -6.34 -845.79 M-6.34 -845.79 C-4.97 -848.73, -3.6 -851.66, 0 -859.39 M-6.34 -845.79 C-4.07 -850.67, -1.79 -855.55, 0 -859.39 M0 -859.39 C0 -859.39, 0 -859.39, 0 -859.39 M0 -859.39 C0 -859.39, 0 -859.39, 0 -859.39" stroke="#6741d9" stroke-width="4" fill="none"></path></g></g><mask></mask><g stroke-linecap="round"><g transform="translate(930.8291502428056 1111.5968211724794) rotate(0 276.3642459218413 -436.71503713566017)"><path d="M0 0 C92.12 -145.57, 460.61 -727.86, 552.73 -873.43 M0 0 C92.12 -145.57, 460.61 -727.86, 552.73 -873.43" stroke="#6741d9" stroke-width="4" fill="none"></path></g><g transform="translate(930.8291502428056 1111.5968211724794) rotate(0 276.3642459218413 -436.71503713566017)"><path d="M552.73 -873.43 L550.82 -858.55 L540.1 -865.33 L552.73 -873.43" stroke="none" stroke-width="0" fill="#6741d9" fill-rule="evenodd"></path><path d="M552.73 -873.43 C552.01 -867.81, 551.28 -862.19, 550.82 -858.55 M552.73 -873.43 C552.1 -868.52, 551.47 -863.61, 550.82 -858.55 M550.82 -858.55 C546.72 -861.14, 542.63 -863.73, 540.1 -865.33 M550.82 -858.55 C548.58 -859.97, 546.35 -861.38, 540.1 -865.33 M540.1 -865.33 C543.11 -867.26, 546.12 -869.19, 552.73 -873.43 M540.1 -865.33 C542.97 -867.17, 545.83 -869.01, 552.73 -873.43 M552.73 -873.43 C552.73 -873.43, 552.73 -873.43, 552.73 -873.43 M552.73 -873.43 C552.73 -873.43, 552.73 -873.43, 552.73 -873.43" stroke="#6741d9" stroke-width="4" fill="none"></path></g></g><mask></mask><g stroke-linecap="round"><g transform="translate(22.06340081468261 315.00027974446493) rotate(0 797.3328173685818 -1.310287450627584)"><path d="M-0.56 0.82 C265.27 0.27, 1329.63 -2.64, 1595.22 -3.44" stroke="#1e1e1e" stroke-width="1.5" fill="none" stroke-dasharray="1.5 7"></path></g></g><mask></mask><g stroke-linecap="round" transform="translate(1360.0191853841156 10) rotate(0 118 100)"><path d="M148.91 26.18 L221.84 87.53 L226.87 96.14 L227.53 105.36 L224.79 108.45 L214.95 116.16 L138.61 181.2 L122.85 191.48 L115.54 194.47 L104.49 185 L20.69 116.82 L10.29 104.53 L8.07 98.13 L9.57 94.23 L18.52 86.12 L109.28 9.85 L120.88 5.48 L126.43 7.63 L149.44 24.62" stroke="none" stroke-width="0" fill="#a5d8ff"></path><path d="M148.75 25.25 M148.75 25.25 C167.5 39.69, 186.57 54.92, 206.25 75.75 M148.75 25.25 C165.33 40.35, 183.16 53.81, 206.25 75.75 M206.25 75.75 C237.19 101.19, 236.12 100.18, 206.25 126.25 M206.25 75.75 C236.01 100.71, 236.16 100.06, 206.25 126.25 M206.25 126.25 C187.48 139.48, 172.79 155.28, 148.75 174.75 M206.25 126.25 C193.44 137.27, 179.93 148.51, 148.75 174.75 M148.75 174.75 C117.29 199.28, 120.59 200.84, 89.25 174.75 M148.75 174.75 C117.97 198.32, 120.06 198.58, 89.25 174.75 M89.25 174.75 C70.54 162.43, 54.88 147.01, 29.75 126.25 M89.25 174.75 C67.53 155.76, 44.46 139.47, 29.75 126.25 M29.75 126.25 C0.19 99.31, -1.33 100.44, 29.75 75.75 M29.75 126.25 C1.31 99.53, 0.05 102.27, 29.75 75.75 M29.75 75.75 C44.06 61.32, 62.08 47.79, 89.25 25.25 M29.75 75.75 C47.08 60.22, 64.74 44.77, 89.25 25.25 M89.25 25.25 C120.85 -0.47, 120.91 0.32, 148.75 25.25 M89.25 25.25 C120.65 -1.69, 119.89 1.26, 148.75 25.25" stroke="#1e1e1e" stroke-width="1" fill="none"></path></g><g transform="translate(1432.1191914876313 65) rotate(0 45.899993896484375 45)"><text x="45.899993896484375" y="0" font-family="Virgil, Segoe UI Emoji" font-size="36px" fill="#1e1e1e" text-anchor="middle" style="white-space: pre;" direction="ltr" dominant-baseline="text-before-edge">XC</text><text x="45.899993896484375" y="45" font-family="Virgil, Segoe UI Emoji" font-size="36px" fill="#1e1e1e" text-anchor="middle" style="white-space: pre;" direction="ltr" dominant-baseline="text-before-edge">SaaS</text></g><g stroke-linecap="round" transform="translate(786.6857503255219 10) rotate(0 118 100)"><path d="M150.12 23.64 L220.37 87.24 L226.41 96.82 L230.07 102.72 L225 106.85 L214.53 116.23 L140.7 183.43 L126.4 191.91 L117.65 192.25 L102.84 186.04 L19.87 117.43 L8.19 107.02 L6.25 98.46 L11.66 93.61 L20.57 82.66 L110.13 10.15 L120.55 8.3 L124.5 7.47 L147.39 23.39" stroke="none" stroke-width="0" fill="#a5d8ff"></path><path d="M148.75 25.25 M148.75 25.25 C164.12 39.79, 183.37 54.79, 206.25 75.75 M148.75 25.25 C164.82 39.17, 182.71 54.54, 206.25 75.75 M206.25 75.75 C235.08 102.34, 237.92 99.87, 206.25 126.25 M206.25 75.75 C237.27 102.28, 235.96 101.72, 206.25 126.25 M206.25 126.25 C186.97 141.09, 170.21 158.34, 148.75 174.75 M206.25 126.25 C187.45 141.06, 168.37 157.22, 148.75 174.75 M148.75 174.75 C120.32 199.47, 119.4 199.63, 89.25 174.75 M148.75 174.75 C119.29 198.06, 120.33 201.23, 89.25 174.75 M89.25 174.75 C71.09 159.44, 51.83 141.86, 29.75 126.25 M89.25 174.75 C74.96 163.7, 60.25 152.74, 29.75 126.25 M29.75 126.25 C0.57 101.55, -1.42 102.26, 29.75 75.75 M29.75 126.25 C1.96 101.45, -1.51 103.19, 29.75 75.75 M29.75 75.75 C46.14 59.26, 65.91 45.94, 89.25 25.25 M29.75 75.75 C51.73 57.65, 73.26 38.38, 89.25 25.25 M89.25 25.25 C119.24 1.33, 119.6 0.47, 148.75 25.25 M89.25 25.25 C118.41 2.08, 118.62 -0.95, 148.75 25.25" stroke="#1e1e1e" stroke-width="1" fill="none"></path></g><g transform="translate(866.6877644856781 65) rotate(0 37.99798583984375 45)"><text x="37.99798583984375" y="0" font-family="Virgil, Segoe UI Emoji" font-size="36px" fill="#1e1e1e" text-anchor="middle" style="white-space: pre;" direction="ltr" dominant-baseline="text-before-edge">GCP</text><text x="37.99798583984375" y="45" font-family="Virgil, Segoe UI Emoji" font-size="36px" fill="#1e1e1e" text-anchor="middle" style="white-space: pre;" direction="ltr" dominant-baseline="text-before-edge">GCR</text></g></svg>