<svg version="1.1" xmlns="http://www.w3.org/2000/svg" viewBox="0 0 1677.4812215169259 1448.0185750325509" width="3354.9624430338517" height="2896.0371500651017" filter="invert(93%) hue-rotate(180deg)">
  <!-- svg-source:excalidraw -->
  
  <defs>
    <style class="style-fonts">
      @font-face {
        font-family: "Virgil";
        src: url("https://excalidraw.com/Virgil.woff2");
      }
      @font-face {
        font-family: "Cascadia";
        src: url("https://excalidraw.com/Cascadia.woff2");
      }
    </style>
    
  </defs>
  <rect x="0" y="0" width="1677.4812215169259" height="1448.0185750325509" fill="#ffffff"></rect><g stroke-linecap="round" transform="translate(657.4812215169259 937.0185750325509) rotate(0 505 250.5)"><path d="M30.78 -0.43 L976.28 1.13 L983.68 -1.23 L999.23 4.39 L1003.96 12.53 L1008.25 17.85 L1011.47 33.41 L1009.12 470.61 L1010.46 474.52 L1007.09 487.31 L996.14 497.06 L992.83 497.18 L978.15 499.77 L31.95 500.5 L23.57 501.97 L12.49 496.11 L5.42 489.03 L1.95 483.41 L-0.85 467.88 L0.74 32.88 L1.16 16.53 L9.22 9.04 L16.26 2.54 L30.2 1.99" stroke="none" stroke-width="0" fill="#a5d8ff"></path><path d="M32 0 M32 0 C398.68 2.52, 763.54 2.41, 978 0 M32 0 C312.24 -2.29, 591.65 -2.26, 978 0 M978 0 C998.16 0.67, 1008.47 12.12, 1010 32 M978 0 C997.09 -1, 1010.68 9.96, 1010 32 M1010 32 C1009.59 146.94, 1009.93 261.94, 1010 469 M1010 32 C1008.34 150.77, 1008.78 269.69, 1010 469 M1010 469 C1009.65 491.78, 999.3 499.77, 978 501 M1010 469 C1008.53 489.54, 1000.66 501.41, 978 501 M978 501 C695 500.08, 413.76 500.55, 32 501 M978 501 C658.51 499.33, 338.66 499.35, 32 501 M32 501 C10.03 501.82, 0.13 491.94, 0 469 M32 501 C12.67 503.25, -1.42 492.23, 0 469 M0 469 C-1.71 369, -2.02 267.93, 0 32 M0 469 C-0.22 328.39, -0.87 187.71, 0 32 M0 32 C1.77 11.82, 12.23 0.82, 32 0 M0 32 C-1.28 8.45, 11.53 -2.27, 32 0" stroke="#1e1e1e" stroke-width="1" fill="none"></path></g><g transform="translate(662.4812215169259 942.0185750325509) rotate(0 32.795989990234375 22.5)"><text x="0" y="0" font-family="Virgil, Segoe UI Emoji" font-size="36px" fill="#1e1e1e" text-anchor="start" style="white-space: pre;" direction="ltr" dominant-baseline="text-before-edge">VPC</text></g><g stroke-linecap="round" transform="translate(953.5923665364569 1093.611170450844) rotate(0 72.22221374511707 72.77778625488281)"><path d="M104.09 7.65 C113.27 11.26, 123.04 19.76, 129.41 28.05 C135.78 36.35, 140.22 47.13, 142.33 57.43 C144.44 67.72, 144.34 79.48, 142.05 89.82 C139.76 100.16, 135.32 111.42, 128.59 119.47 C121.86 127.51, 111.26 133.65, 101.68 138.1 C92.1 142.55, 81.61 146.24, 71.12 146.16 C60.63 146.09, 48.25 142.61, 38.75 137.64 C29.24 132.67, 20.2 124.67, 14.1 116.36 C8 108.04, 4.29 98.13, 2.15 87.76 C0.02 77.38, -1.3 64.5, 1.29 54.12 C3.88 43.74, 10.86 33.44, 17.71 25.49 C24.56 17.55, 32.91 10.86, 42.4 6.47 C51.88 2.07, 63.42 -1.54, 74.63 -0.89 C85.85 -0.25, 103.43 7.82, 109.68 10.33 C115.94 12.83, 113.06 13.05, 112.15 14.13 M78.06 1.47 C88.13 0.73, 99.38 3.47, 108.22 8.33 C117.06 13.18, 125.25 21.63, 131.1 30.6 C136.95 39.57, 141.73 51.92, 143.34 62.15 C144.95 72.38, 143.83 82.03, 140.74 91.96 C137.65 101.9, 131.63 113.48, 124.79 121.75 C117.94 130.02, 109.01 137.8, 99.68 141.59 C90.35 145.37, 79.29 145.17, 68.82 144.47 C58.35 143.78, 45.9 142.66, 36.85 137.44 C27.8 132.22, 20.74 122.06, 14.53 113.15 C8.32 104.24, 1.53 94.09, -0.4 83.99 C-2.33 73.9, -0.15 62.58, 2.95 52.58 C6.06 42.59, 11.06 31.79, 18.23 24.03 C25.41 16.28, 36.31 10.02, 46.03 6.07 C55.76 2.12, 71.26 1.11, 76.58 0.33 C81.9 -0.46, 78.06 0.3, 77.95 1.36" stroke="none" stroke-width="0" fill="#a5d8ff"></path><path d="M59.97 1 C69.76 -1.7, 82.39 0.68, 92.48 3.75 C102.58 6.82, 112.65 12.59, 120.54 19.4 C128.44 26.21, 135.87 35.13, 139.84 44.63 C143.81 54.12, 144.99 65.65, 144.36 76.35 C143.72 87.06, 141.11 99.4, 136.04 108.84 C130.97 118.29, 122.48 127.21, 113.95 133.02 C105.41 138.84, 95.28 142.12, 84.84 143.76 C74.39 145.4, 61.51 145.55, 51.26 142.87 C41.01 140.19, 30.81 134.65, 23.35 127.67 C15.88 120.69, 10.18 110.83, 6.47 100.98 C2.76 91.12, 0.67 79.02, 1.08 68.54 C1.49 58.05, 4.15 47.15, 8.93 38.06 C13.71 28.98, 19.33 20.46, 29.77 14.04 C40.2 7.62, 62.96 1.61, 71.55 -0.44 C80.13 -2.48, 81.33 0.4, 81.28 1.76 M85.9 1.46 C95.73 2.06, 107.2 7.19, 115.43 13.56 C123.65 19.94, 130.43 30.13, 135.24 39.7 C140.05 49.28, 143.94 60.86, 144.28 71 C144.61 81.15, 141.28 90.88, 137.23 100.58 C133.17 110.28, 127.6 121.98, 119.96 129.19 C112.32 136.41, 101.74 141.35, 91.37 143.88 C81 146.42, 68.19 146.68, 57.74 144.4 C47.29 142.13, 37.13 136.3, 28.67 130.23 C20.22 124.17, 11.83 117.31, 6.99 108.01 C2.15 98.71, -0.03 85.15, -0.38 74.44 C-0.72 63.73, 0.79 53.17, 4.9 43.73 C9.02 34.28, 16.16 24.84, 24.32 17.77 C32.48 10.7, 43.78 3.89, 53.87 1.31 C63.96 -1.27, 79.77 1.99, 84.88 2.3 C89.99 2.62, 84.5 2.3, 84.52 3.2" stroke="#1e1e1e" stroke-width="1" fill="none"></path></g><g transform="translate(999.0697683170505 1143.9272905251546) rotate(0 26.675994873046875 22.5)"><text x="26.675994873046875" y="0" font-family="Virgil, Segoe UI Emoji" font-size="36px" fill="#1e1e1e" text-anchor="middle" style="white-space: pre;" direction="ltr" dominant-baseline="text-before-edge">RT</text></g><g stroke-linecap="round"><g transform="translate(1098.036794026691 1170.2778879801408) rotate(0 250.70596185088928 0.4721079243163331)"><path d="M1.18 0.45 C84.84 0.29, 417.97 -0.19, 501.07 -0.16 M0.34 -0.36 C84.02 -0.39, 417.63 1.47, 500.73 1.29" stroke="#1e1e1e" stroke-width="1" fill="none"></path></g></g><mask></mask><g stroke-linecap="round"><g transform="translate(1339.5184224446598 1168.0555979410783) rotate(0 1.4219589441176481 32.160216172603214)"><path d="M0.75 -1.09 C0.95 9.4, 0.88 53.28, 1.06 64.07 M-0.32 0.95 C0.24 12.12, 2.96 54.82, 3.16 65.41" stroke="#1e1e1e" stroke-width="1" fill="none"></path></g></g><mask></mask><g stroke-linecap="round" transform="translate(1245.074147542316 1223.611170450844) rotate(0 95.5 100)"><path d="M120.01 24.53 L176.04 88.77 L185.13 94.89 L184.8 102.12 L173.95 119.26 L112.9 181.21 L98.96 194.29 L92.54 193.37 L83.23 187.76 L14.3 119.62 L7.72 106.89 L7.5 96.77 L17.14 84.38 L89.04 9.86 L97.84 8.09 L101.54 6.23 L119.66 24.72" stroke="none" stroke-width="0" fill="#a5d8ff"></path><path d="M120 25.25 M120 25.25 C132.22 38.78, 147.89 55.05, 167 75.75 M120 25.25 C138.83 46.24, 158.39 64.44, 167 75.75 M167 75.75 C189.2 100.23, 191.03 101.46, 167 126.25 M167 75.75 C190.38 101.08, 192.65 102.05, 167 126.25 M167 126.25 C152.96 140.48, 138.5 153.93, 120 174.75 M167 126.25 C157.03 135.06, 148.03 146.06, 120 174.75 M120 174.75 C94.64 200.14, 94.91 201.28, 72 174.75 M120 174.75 C94.19 199.62, 95.94 200.16, 72 174.75 M72 174.75 C56.25 159.23, 40.01 141.67, 24 126.25 M72 174.75 C53.68 155.75, 34.9 136.71, 24 126.25 M24 126.25 C0.08 99.83, 0.45 100.48, 24 75.75 M24 126.25 C1.7 101.48, -1.28 100.2, 24 75.75 M24 75.75 C40.32 59.64, 52.14 45.06, 72 25.25 M24 75.75 C39.42 59.59, 56.23 42.17, 72 25.25 M72 25.25 C96.11 -1.93, 95.65 1.71, 120 25.25 M72 25.25 C95.34 0.52, 95.12 -0.36, 120 25.25" stroke="#1e1e1e" stroke-width="1" fill="none"></path></g><g transform="translate(1302.3581593831364 1278.611170450844) rotate(0 38.46598815917969 45)"><text x="38.46598815917969" y="0" font-family="Virgil, Segoe UI Emoji" font-size="36px" fill="#1e1e1e" text-anchor="middle" style="white-space: pre;" direction="ltr" dominant-baseline="text-before-edge">XC </text><text x="38.46598815917969" y="45" font-family="Virgil, Segoe UI Emoji" font-size="36px" fill="#1e1e1e" text-anchor="middle" style="white-space: pre;" direction="ltr" dominant-baseline="text-before-edge">node</text></g><g stroke-linecap="round" transform="translate(123.55557250976562 1050.2779261271135) rotate(0 139.44442749023438 129.99998092651367)"><path d="M183.36 7.48 C197.84 9.54, 212.81 17.96, 225.03 26.31 C237.25 34.66, 248.52 45.66, 256.68 57.6 C264.84 69.54, 270.26 84.27, 274 97.95 C277.75 111.64, 280.32 125.65, 279.18 139.73 C278.03 153.81, 273.38 169.36, 267.14 182.43 C260.9 195.51, 251.99 207.73, 241.72 218.17 C231.46 228.61, 218.54 238.32, 205.57 245.06 C192.6 251.79, 178.8 256.28, 163.9 258.58 C149 260.88, 131.22 261.33, 116.16 258.85 C101.11 256.38, 86.83 250.58, 73.57 243.72 C60.32 236.85, 46.78 227.85, 36.65 217.67 C26.51 207.5, 18.9 195.5, 12.75 182.67 C6.6 169.85, 1.24 154.76, -0.27 140.72 C-1.78 126.68, -0.17 111.98, 3.7 98.44 C7.57 84.89, 14.55 71.38, 22.94 59.46 C31.32 47.54, 42.16 35.52, 54.01 26.92 C65.86 18.33, 79.85 12.39, 94.04 7.9 C108.22 3.4, 123.24 0.05, 139.14 -0.02 C155.04 -0.09, 180.53 5.46, 189.44 7.49 C198.35 9.51, 193.46 9.97, 192.6 12.14 M125.02 0.71 C139.11 -2.43, 155.52 1.71, 170.07 4.66 C184.62 7.61, 199.24 11.17, 212.3 18.41 C225.36 25.64, 238.77 37.07, 248.44 48.08 C258.11 59.09, 265.27 71.25, 270.31 84.47 C275.35 97.7, 278.25 113.45, 278.67 127.44 C279.09 141.43, 277.25 155.32, 272.84 168.41 C268.44 181.51, 261.43 194.48, 252.25 206.01 C243.06 217.55, 230.48 229.64, 217.73 237.63 C204.97 245.63, 190.3 250.17, 175.72 253.98 C161.14 257.79, 145.05 261.04, 130.25 260.5 C115.44 259.96, 100.66 256.24, 86.87 250.72 C73.09 245.19, 59.11 236.92, 47.54 227.36 C35.97 217.79, 24.87 205.46, 17.46 193.34 C10.05 181.21, 5.8 168.35, 3.08 154.59 C0.35 140.83, -0.84 124.9, 1.11 110.79 C3.06 96.68, 7.77 82.4, 14.79 69.93 C21.81 57.46, 32.36 45.72, 43.23 35.96 C54.1 26.21, 66.57 17.39, 80.03 11.39 C93.49 5.39, 116.25 1.26, 123.97 -0.05 C131.69 -1.36, 126.22 1.37, 126.35 3.52" stroke="none" stroke-width="0" fill="#a5d8ff"></path><path d="M187.4 8.43 C201.67 11.36, 216.06 21.26, 227.89 30.1 C239.71 38.94, 250.3 49.66, 258.35 61.48 C266.4 73.29, 272.85 87.26, 276.17 100.99 C279.48 114.72, 280.06 129.77, 278.24 143.84 C276.42 157.92, 271.67 172.61, 265.25 185.45 C258.84 198.28, 250.29 210.73, 239.77 220.84 C229.25 230.96, 215.72 239.97, 202.13 246.13 C188.55 252.29, 173.07 255.82, 158.25 257.8 C143.44 259.78, 127.79 260.37, 113.22 258.01 C98.64 255.64, 83.84 250.76, 70.83 243.63 C57.82 236.49, 45.28 225.85, 35.15 215.2 C25.02 204.54, 15.77 192.69, 10.06 179.67 C4.35 166.64, 1.86 151.18, 0.87 137.04 C-0.11 122.91, 0.36 108.26, 4.16 94.86 C7.95 81.46, 14.94 68.07, 23.64 56.66 C32.34 45.26, 44.14 35.03, 56.35 26.43 C68.56 17.83, 82.64 9.3, 96.91 5.05 C111.18 0.8, 125.44 -0.14, 141.96 0.91 C158.47 1.96, 186.19 8.72, 196.01 11.36 C205.83 13.99, 201.85 14.7, 200.87 16.71 M185.67 8.68 C200.19 11.61, 215.43 20.79, 227.47 29.58 C239.51 38.37, 249.77 49.84, 257.92 61.42 C266.07 73, 272.81 85.64, 276.38 99.07 C279.95 112.49, 280.73 128.02, 279.34 141.98 C277.94 155.93, 274.43 169.8, 268 182.79 C261.57 195.78, 251.51 209.37, 240.75 219.92 C230 230.47, 216.66 239.76, 203.45 246.1 C190.24 252.43, 176.27 255.73, 161.49 257.93 C146.72 260.12, 129.93 261.68, 114.8 259.27 C99.68 256.86, 83.89 250.43, 70.75 243.47 C57.61 236.51, 45.88 227.93, 35.98 217.49 C26.08 207.04, 17.53 193.68, 11.35 180.79 C5.17 167.91, -0.21 154.07, -1.12 140.16 C-2.03 126.25, 2 111.09, 5.9 97.33 C9.8 83.58, 14.11 69.43, 22.3 57.63 C30.48 45.83, 42.62 35.09, 54.99 26.54 C67.37 18, 82.06 10.97, 96.57 6.37 C111.08 1.77, 127.35 -1.41, 142.04 -1.06 C156.74 -0.71, 177.38 6.41, 184.73 8.47 C192.08 10.53, 186.8 9.5, 186.13 11.3" stroke="#1e1e1e" stroke-width="1" fill="none"></path></g><g transform="translate(220.7959099768857 1157.8540389863683) rotate(0 42.10198974609375 22.5)"><text x="42.10198974609375" y="0" font-family="Virgil, Segoe UI Emoji" font-size="36px" fill="#1e1e1e" text-anchor="middle" style="white-space: pre;" direction="ltr" dominant-baseline="text-before-edge">TGW</text></g><g stroke-linecap="round"><g transform="translate(950.2590840657538 1170.2778879801408) rotate(0 -273.1022254032315 1.222573411234407)"><path d="M0.78 1.15 C-90.49 1.05, -455.35 0.59, -546.64 0.51 M-0.26 0.7 C-91.69 1.31, -455.82 1.72, -546.99 1.93" stroke="#1e1e1e" stroke-width="1" fill="none"></path></g></g><mask></mask><g transform="translate(909.3332316080719 1034.1667683919259) rotate(0 119.23196411132812 22.5)"><text x="0" y="0" font-family="Virgil, Segoe UI Emoji" font-size="36px" fill="#1e1e1e" text-anchor="start" style="white-space: pre;" direction="ltr" dominant-baseline="text-before-edge">0/0 via TGW</text></g><g stroke-linecap="round" transform="translate(10 438.61109415690225) rotate(0 253 175)"><path d="M33.6 -1.43 L472.25 1.33 L482.87 2.34 L492.6 3.89 L501.19 11.27 L505.31 16.38 L507.93 30.39 L507.24 318.8 L503.97 327.14 L499.83 336.56 L494.3 346.93 L487.08 347.52 L475.44 348.58 L33.06 348.48 L26.48 351.35 L13.39 343.68 L5.57 337.45 L0.25 330.79 L-1.55 319.53 L-0.11 30.41 L0.88 17.16 L7.63 9.11 L18.21 3.35 L30.34 0.85" stroke="none" stroke-width="0" fill="#a5d8ff"></path><path d="M32 0 M32 0 C195.06 -0.82, 357.15 -0.21, 474 0 M32 0 C189.43 0.3, 347.51 0.46, 474 0 M474 0 C494.87 1.89, 505.22 9.22, 506 32 M474 0 C496.93 0.57, 506.16 10.09, 506 32 M506 32 C505.97 115.17, 505.45 196.09, 506 318 M506 32 C503.76 128.5, 504.45 224.5, 506 318 M506 318 C506.06 338.83, 494.03 348.31, 474 350 M506 318 C506.9 339.52, 494.9 348.62, 474 350 M474 350 C354.64 350.74, 235.44 350.56, 32 350 M474 350 C364.23 350.01, 255.45 349.9, 32 350 M32 350 C11.51 348.17, 1.73 340.33, 0 318 M32 350 C11.73 352.04, 2.13 338.56, 0 318 M0 318 C-0.03 241.11, -1 163.38, 0 32 M0 318 C2.29 219.61, 1.73 121.83, 0 32 M0 32 C1.52 12.07, 9.75 -1.35, 32 0 M0 32 C-0.74 11, 9.22 1.55, 32 0" stroke="#1e1e1e" stroke-width="1" fill="none"></path></g><g transform="translate(15 443.61109415690225) rotate(0 32.795989990234375 22.5)"><text x="0" y="0" font-family="Virgil, Segoe UI Emoji" font-size="36px" fill="#1e1e1e" text-anchor="start" style="white-space: pre;" direction="ltr" dominant-baseline="text-before-edge">VPC</text></g><g stroke-linecap="round"><g transform="translate(263.99330426325196 796.1113230387346) rotate(0 -0.9933042632519573 128.715286511695)"><path d="M-0.02 0.49 C-0.29 43.24, -1.26 213.64, -1.43 256.35 M-1.49 -0.3 C-1.87 42.64, -2.01 214.65, -1.96 257.73" stroke="#1e1e1e" stroke-width="1" fill="none"></path></g></g><mask></mask><g stroke-linecap="round" transform="translate(167.5 513.6110941569023) rotate(0 95.5 100)"><path d="M118.74 24.02 L177.47 88.31 L183.39 97.46 L185.02 103.25 L175.42 118.89 L111.11 182.75 L102.5 190.76 L94.91 192.67 L81.48 185.06 L14.55 116.95 L5.61 107.71 L7.44 99.79 L14.5 84.48 L87.15 10.07 L95.94 6.78 L101.54 7.37 L119.78 23.29" stroke="none" stroke-width="0" fill="#a5d8ff"></path><path d="M120 25.25 M120 25.25 C130.5 39.27, 145.97 52.18, 167 75.75 M120 25.25 C135.15 41.19, 148.9 57.36, 167 75.75 M167 75.75 C192 100.09, 190.22 99.13, 167 126.25 M167 75.75 C191.52 102.41, 193.26 100.9, 167 126.25 M167 126.25 C158.77 136.64, 145.92 146.33, 120 174.75 M167 126.25 C150.56 143.09, 133.4 160.56, 120 174.75 M120 174.75 C96.91 198.35, 95.18 199.44, 72 174.75 M120 174.75 C97.24 197.96, 97.85 200, 72 174.75 M72 174.75 C53.83 154.91, 33.82 136.83, 24 126.25 M72 174.75 C58.08 159.59, 42.25 145.68, 24 126.25 M24 126.25 C1.69 102.81, -1.51 100.86, 24 75.75 M24 126.25 C1.69 103.12, -1.91 100.79, 24 75.75 M24 75.75 C39.88 59.6, 51.15 46.22, 72 25.25 M24 75.75 C37.15 62.09, 50.91 47.86, 72 25.25 M72 25.25 C94.69 -0.78, 94.5 -1.31, 120 25.25 M72 25.25 C98.23 -0.11, 96.5 -1.46, 120 25.25" stroke="#1e1e1e" stroke-width="1" fill="none"></path></g><g transform="translate(239.4900131225586 591.1110941569023) rotate(0 23.759986877441406 22.5)"><text x="23.759986877441406" y="0" font-family="Virgil, Segoe UI Emoji" font-size="36px" fill="#1e1e1e" text-anchor="middle" style="white-space: pre;" direction="ltr" dominant-baseline="text-before-edge">FW</text></g><g stroke-linecap="round"><g transform="translate(264.35917718186965 177.2224680582658) rotate(0 -1.359177181869768 129.17273608222604)"><path d="M-0.04 0.76 C-0.66 43.64, -2.49 215, -2.67 257.59" stroke="#1e1e1e" stroke-width="1.5" fill="none" stroke-dasharray="1.5 7"></path></g></g><mask></mask><g transform="translate(188.60602569580078 293.61124674479106) rotate(0 74.39397430419922 22.5)"><text x="0" y="0" font-family="Virgil, Segoe UI Emoji" font-size="36px" fill="#1e1e1e" text-anchor="start" style="white-space: pre;" direction="ltr" dominant-baseline="text-before-edge">Internet</text></g><g stroke-linecap="round" transform="translate(145.277811686198 10) rotate(0 118 100)"><path d="M147.94 24.58 L219.36 89.18 L227.58 95.86 L226.82 103.17 L226.66 109.46 L215.8 117.67 L138.79 184.96 L124.05 191.18 L117.96 192.34 L101.88 187.7 L19.14 116.45 L8.88 106.81 L7.3 99.86 L9.62 91.83 L21.34 85.43 L110.41 7.07 L117.22 5.35 L125.71 8.73 L147.5 25.95" stroke="none" stroke-width="0" fill="#a5d8ff"></path><path d="M148.75 25.25 M148.75 25.25 C165.2 42.87, 184.85 57.67, 206.25 75.75 M148.75 25.25 C161.15 36.38, 173.91 47.28, 206.25 75.75 M206.25 75.75 C237.16 100.11, 235.07 102.13, 206.25 126.25 M206.25 75.75 C236.62 103, 235.02 101.87, 206.25 126.25 M206.25 126.25 C188.96 140.4, 174.29 152.8, 148.75 174.75 M206.25 126.25 C186.25 142.19, 165.26 160.29, 148.75 174.75 M148.75 174.75 C118.86 198.92, 119.38 198.24, 89.25 174.75 M148.75 174.75 C117.36 199.13, 116.97 200.83, 89.25 174.75 M89.25 174.75 C75.7 162.61, 58.54 150.48, 29.75 126.25 M89.25 174.75 C75.65 163.33, 62.1 152.4, 29.75 126.25 M29.75 126.25 C1.58 102.3, 1.72 102.56, 29.75 75.75 M29.75 126.25 C0.63 99.57, -1.17 103.03, 29.75 75.75 M29.75 75.75 C43.45 64, 57.84 55.8, 89.25 25.25 M29.75 75.75 C50.27 57.67, 72.29 40.78, 89.25 25.25 M89.25 25.25 C118.87 -1.66, 117.77 0.72, 148.75 25.25 M89.25 25.25 C118.91 2.12, 119.24 -0.28, 148.75 25.25" stroke="#1e1e1e" stroke-width="1" fill="none"></path></g><g transform="translate(217.37781778971362 65) rotate(0 45.899993896484375 45)"><text x="45.899993896484375" y="0" font-family="Virgil, Segoe UI Emoji" font-size="36px" fill="#1e1e1e" text-anchor="middle" style="white-space: pre;" direction="ltr" dominant-baseline="text-before-edge">XC</text><text x="45.899993896484375" y="45" font-family="Virgil, Segoe UI Emoji" font-size="36px" fill="#1e1e1e" text-anchor="middle" style="white-space: pre;" direction="ltr" dominant-baseline="text-before-edge">SaaS</text></g></svg>